@startuml erDiagram

!define table(x) class x << (T,#FFAAAA) >>
!define entity(x) class x << (E,#AAAAFF) >>

entity "Achievement_Percentages" {
  +**appid**: int(10) unsigned (PK)
  +**Name**: varchar(64) (PK)
  --
  Percentage: float
}

entity "App_ID_Info" {
  +**appid**: int(10) unsigned (PK)
  --
  Title: varchar(128)
  Type: varchar(128)
  Price: double
  Release_Date: datetime
  Rating: int(11)
  Required_Age: int(11)
  Is_Multiplayer: int(11)
}

entity "App_ID_Info_Old" {
  +**appid**: int(10) unsigned (PK)
  --
  Title: varchar(128)
  Type: varchar(128)
  Price: double
  Release_Date: datetime
  Rating: int(11)
  Required_Age: int(11)
  Is_Multiplayer: int(11)
}

entity "Friends" {
  +**steamid_a**: bigint(20) unsigned (PK)
  +**steamid_b**: bigint(20) unsigned (PK)
  --
  relationship: varchar(32)
  friend_since: datetime
  dateretrieved: datetime
  LccTag: int(1) unsigned
}

entity "Games_1" {
  +**steamid**: bigint(20) unsigned (PK)
  +**appid**: int(10) unsigned (PK)
  --
  playtime_2weeks: int(10) unsigned
  playtime_forever: int(10) unsigned
  dateretrieved: datetime
}

entity "Games_2" {
  +**steamid**: bigint(20) unsigned (PK)
  +**appid**: int(10) unsigned (PK)
  --
  playtime_2weeks: int(10) unsigned
  playtime_forever: int(10) unsigned
  dateretrieved: datetime
}

entity "Games_Daily" {
  +**steamid**: bigint(20) unsigned (PK)
  +**appid**: int(10) unsigned (PK)
  --
  playtime_2weeks: int(10) unsigned
  playtime_forever: int(10) unsigned
  dateretrieved: datetime
}

entity "Games_Developers" {
  +**appid**: int(10) unsigned (PK)
  +Developer: varchar(64) (PK)
}

entity "Games_Developers_Old" {
  +**appid**: int(10) unsigned (PK)
  +Developer: varchar(64) (PK)
}

entity "Games_Genres" {
  +**appid**: int(10) unsigned (PK)
  +Genre: varchar(64) (PK)
}

entity "Games_Genres_Old" {
  +**appid**: int(10) unsigned (PK)
  +Genre: varchar(64) (PK)
}

entity "Games_Publishers" {
  +**appid**: int(10) unsigned (PK)
  +Publisher: varchar(64) (PK)
}

entity "Games_Publishers_Old" {
  +**appid**: int(10) unsigned (PK)
  +Publisher: varchar(64) (PK)
}


entity "Player_Summaries" {
  +**steamid**: bigint(20) unsigned (PK)
  + **personaname**: varchar(64) (PK)
  + gameid: int(10) unsigned (FK)
  + primaryclanid: bigint(20) unsigned (FK)
  --
  profileurl: varchar(128)
  avatar: varchar(128)
  avatarmedium: varchar(128)
  avatarfull: varchar(128)
  personastate: tinyint(3) unsigned
  communityvisibilitystate: tinyint(3) unsigned
  profilestate: tinyint(3) unsigned
  lastlogoff: datetime
  commentpermission: tinyint(3) unsigned
  realname: varchar(128)
  timecreated: datetime
  gameserverip: varchar(64)
  gameextrainfo: varchar(64)
  cityid: int(10) unsigned
  loccountrycode: varchar(2)
  locstatecode: varchar(4)
  loccityid: int(10) unsigned
  dateretrieved: datetime
}


' Relationships
App_ID_Info ||--o{ Games_1 : Has
"App_ID_Info_Old" ||--o{ Games_1 : Has
App_ID_Info ||--o{ Games_2 : Has
"App_ID_Info_Old" ||--o{ Games_2 : Has
Games_1 ||--o{ Games_Daily : Has
Games_2 ||--o{ Games_Daily : has
Player_Summaries ||--o{ Friends : Friends
Friends }o--o{ Player_Summaries : Are
Games_1 --o{ Player_Summaries: Plays
Games_2 --o{ Player_Summaries: Plays

App_ID_Info ||--|| "Games_Developers" : isDevelop
App_ID_Info ||--|| "Games_Genres" : isGenres
App_ID_Info ||--|| "Games_Publishers" : isPublish


App_ID_Info ||--|| "Games_Publishers_Old" : isDevelop
App_ID_Info ||--|| "Games_Developers_Old" : isGenres
App_ID_Info ||--|| "Games_Genres_Old" : isPublish

"App_ID_Info" ||--o{ "Achievement_Percentages" : Has
"Achievement_Percentages" }o--o{ Player_Summaries : By
"App_ID_Info_Old" ||--o{ "Achievement_Percentages" : Has
"Achievement_Percentages" }o--o{ Player_Summaries : By




@enduml
